<?xml version="1.0" encoding="UTF-8"?>
<svg xmlns="http://www.w3.org/2000/svg" xmlns:xlink="http://www.w3.org/1999/xlink" viewBox="0 0 25 20" preserveAspectRatio="none">
<g>
	<path fill="none" d="M10.031,0H0v20h10.294C10.435,13.54,10.031,0,10.031,0z"/>
	<path fill="none" d="M14.992,0c0,0,0.529,12.949,0.228,20H25V0H14.992z"/>
	<path fill="#FDF5DD" d="M14.045,0h-3.066c0,0,0.366,13.341,0.162,20h2.952C14.341,13.047,14.045,0,14.045,0z"/>
	<path fill="#9D4141" d="M14.992,0h-0.947c0,0,0.296,13.047,0.048,20h1.127C15.521,12.949,14.992,0,14.992,0z"/>
	<path fill="#9D4141" d="M10.979,0h-0.947c0,0,0.403,13.54,0.263,20h0.846C11.345,13.341,10.979,0,10.979,0z"/>
</g>
</svg>