<?xml version="1.0" encoding="UTF-8"?>
<!-- Generator: Adobe Illustrator 16.0.0, SVG Export Plug-In . SVG Version: 6.00 Build 0)  -->
<!DOCTYPE svg PUBLIC "-//W3C//DTD SVG 1.1//EN" "http://www.w3.org/Graphics/SVG/1.1/DTD/svg11.dtd">
<svg version="1.1" id="Layer_1" xmlns="http://www.w3.org/2000/svg" xmlns:xlink="http://www.w3.org/1999/xlink" x="0px" y="0px" width="25px" height="80px" viewBox="0 0 25 80" enable-background="new 0 0 25 80" xml:space="preserve">
<g>
	<path fill="none" d="M11.086,47.273c-0.011-0.085-0.021-0.17-0.034-0.254C11.064,47.104,11.075,47.188,11.086,47.273z"/>
	<path fill="none" d="M10.896,46.15c-0.012-0.055-0.021-0.109-0.032-0.163C10.876,46.041,10.885,46.096,10.896,46.15z"/>
	<path fill="none" d="M11.191,48.355c-0.006-0.094-0.013-0.188-0.021-0.281C11.179,48.168,11.186,48.262,11.191,48.355z"/>
	<path fill="none" d="M9.892,42.868c-0.015-0.035-0.03-0.07-0.045-0.106C9.861,42.798,9.877,42.833,9.892,42.868z"/>
	<path fill="none" d="M15.22,0c-0.09,2.12-0.255,3.712-0.533,4.252c-2.058,6.294-7.339,11.073-8.835,17.596   c-0.811,4.961,1.545,9.771,4.34,13.806l0,0c3.285,4.613,6.688,9.944,5.604,15.859c-1.384,6.613-8.08,10.527-9.566,17.089   c-0.073,0.315-0.205,0.826-0.288,1.14c-0.682,2.581-0.023,5.233,0.612,7.769c0.417,1.805-1.714,2.765-3.267,2.42   c-0.316-0.069-0.683-0.423-0.831-0.713c-1.62-3.19-2.057-7.018-1.145-10.475c2.057-6.295,7.339-11.073,8.835-17.597   c0.802-4.893-1.398-9.53-4.141-13.527C3.092,33.541-0.006,28.845,0,23.712V80h25V0H15.22z"/>
	<path fill="none" d="M4.216,76.605c-1.201,0.319-1.267,2.382-0.189,2.356c0.324-0.008,0.84-0.1,1.136-0.232   C6.12,78.303,5.171,76.254,4.216,76.605z"/>
	<path fill="none" d="M11.157,50.498c0.006-0.06,0.007-0.119,0.013-0.18C11.164,50.379,11.163,50.438,11.157,50.498z"/>
	<path fill="none" d="M14.617,52.695c-1.744,4.381-5.254,7.662-7.69,11.628C5.397,67.46,4.583,70.977,4.8,74.475   c0.1,1.161-1.094,1.586-2.005,2.124c-0.069,0.041-0.139,0.06-0.204,0.069c0.066-0.01,0.137-0.037,0.208-0.08   c0.91-0.537,2.106-0.978,2.005-2.139c-0.22-3.496,0.595-7.043,2.125-10.18c2.437-3.968,5.947-7.192,7.691-11.573   C16.285,47.386,13.623,42,10.574,38h-0.002C13.621,42,16.282,47.385,14.617,52.695z"/>
	<path fill="none" d="M9.77,4.394c0.072-0.317,0.177-0.836,0.287-1.142C10.185,2.901,10.258,1.689,10.295,0H0v23.709   c0.001-0.734,0.065-1.477,0.203-2.228C1.587,14.869,8.283,10.954,9.77,4.394z"/>
	<path fill="none" d="M11.215,49.16c0,0.089,0.002,0.178,0,0.268C11.217,49.338,11.215,49.249,11.215,49.16z"/>
	<path fill="none" d="M9.46,41.869c-0.023-0.052-0.048-0.103-0.071-0.154C9.412,41.767,9.437,41.817,9.46,41.869z"/>
	<path fill="none" d="M8.974,40.864c-0.023-0.045-0.046-0.091-0.07-0.136C8.927,40.773,8.95,40.819,8.974,40.864z"/>
	<path fill="none" d="M8.42,39.83c-0.01-0.018-0.02-0.036-0.03-0.054C8.4,39.793,8.41,39.812,8.42,39.83z"/>
	<path fill="#FDF5DD" d="M9.071,8.728C6.634,12.696,3.125,16.03,1.38,20.411c-1.624,5.177,0.865,10.306,3.815,14.484   c-0.077-0.243-0.042-0.531,0.125-0.712c0.062-0.065,0.124-0.129,0.19-0.187c0.242-0.219,0.748-0.385,1.071-0.357   c1.471,0.122,2.334,1.727,3.181,3.011C9.585,36.381,9.408,36.1,9.225,35.82l0,0c-2.886-4.268-5.172-9.218-4.235-14.42   c1.516-6.411,6.104-10.692,8.716-17.313C13.897,3.601,14.019,2.066,14.093,0h-2.952c-0.055,1.777-0.149,3.084-0.303,3.528   C10.24,5.266,9.873,7.085,9.071,8.728z"/>
	<path fill="#FDF5DD" d="M10.572,37.781l0.002,0c-0.08-0.111-0.158-0.224-0.238-0.333c-0.186-0.225-0.367-0.485-0.549-0.76   c0.181,0.273,0.361,0.536,0.547,0.76C10.414,37.558,10.493,37.67,10.572,37.781z"/>
	<path fill="#FDF5DD" d="M8.39,39.775c0.01,0.018,0.02,0.036,0.03,0.054c0.167,0.297,0.328,0.596,0.483,0.898   c0.023,0.045,0.046,0.091,0.07,0.136c0.144,0.281,0.281,0.565,0.415,0.851c0.023,0.052,0.048,0.103,0.071,0.154   c0.136,0.295,0.265,0.593,0.387,0.893c0.015,0.036,0.03,0.071,0.045,0.106c0.41,1.019,0.742,2.06,0.973,3.119   c0.012,0.054,0.021,0.108,0.032,0.163c0.06,0.288,0.111,0.578,0.155,0.869c0.013,0.084,0.023,0.169,0.034,0.254   c0.036,0.266,0.064,0.533,0.085,0.801c0.008,0.094,0.015,0.188,0.021,0.281c0.016,0.267,0.022,0.535,0.023,0.805   c0,0.089,0.002,0.178,0,0.268c-0.005,0.296-0.021,0.593-0.045,0.891c-0.006,0.061-0.007,0.12-0.013,0.18   c-0.035,0.365-0.081,0.73-0.147,1.098c-1.516,6.41-6.656,11.127-8.716,17.313c-0.779,2.402-0.661,4.991-0.117,7.435   c0.052,0.236,0.217,0.347,0.414,0.318c0.065-0.01,0.135-0.035,0.204-0.076c0.911-0.538,2.104-0.977,2.005-2.138   c-0.217-3.498,0.597-7.042,2.127-10.179c2.437-3.966,5.946-7.302,7.69-11.683c1.665-5.311-0.996-10.571-4.045-14.805   c-0.079-0.111-0.158-0.224-0.238-0.333c-0.186-0.224-0.366-0.487-0.547-0.76c-0.008-0.013-0.017-0.026-0.025-0.039   c-0.846-1.284-1.71-2.889-3.181-3.011c-0.323-0.027-0.829,0.139-1.071,0.357c-0.067,0.058-0.128,0.121-0.19,0.187   c-0.167,0.181-0.202,0.469-0.125,0.712c0.155,0.22,0.311,0.439,0.468,0.654c0.35,0.423,0.683,0.966,1.035,1.509l0,0   C7.295,37.935,7.865,38.843,8.39,39.775z"/>
	<path fill="#9D4141" d="M9.225,35.82L9.225,35.82c0.184,0.28,0.36,0.561,0.537,0.829c0.009,0.013,0.018,0.026,0.025,0.039   c0.182,0.275,0.363,0.535,0.549,0.76c0.08,0.109,0.158,0.222,0.238,0.333c3.049,4.235,5.711,9.495,4.045,14.805   c-1.744,4.381-5.254,7.715-7.691,11.683c-1.53,3.137-2.345,6.683-2.125,10.179c0.102,1.161-1.095,1.6-2.005,2.138   c-0.071,0.042-0.141,0.066-0.208,0.076c-0.197,0.028-0.361-0.082-0.414-0.318c-0.544-2.443-0.663-5.032,0.117-7.435   c2.06-6.186,7.2-10.902,8.716-17.313c0.066-0.367,0.112-0.732,0.147-1.098c0.006-0.06,0.007-0.119,0.013-0.18   c0.024-0.298,0.04-0.595,0.045-0.891c0.002-0.09,0-0.179,0-0.268c-0.001-0.27-0.008-0.538-0.023-0.805   c-0.006-0.094-0.013-0.188-0.021-0.281c-0.021-0.268-0.049-0.535-0.085-0.801c-0.011-0.085-0.021-0.17-0.034-0.254   c-0.044-0.291-0.096-0.581-0.155-0.869c-0.012-0.055-0.021-0.109-0.032-0.163c-0.23-1.06-0.563-2.101-0.973-3.119   c-0.015-0.035-0.03-0.07-0.045-0.106c-0.122-0.3-0.251-0.598-0.387-0.893c-0.023-0.052-0.048-0.103-0.071-0.154   c-0.134-0.285-0.271-0.569-0.415-0.851c-0.023-0.045-0.046-0.091-0.07-0.136c-0.156-0.302-0.317-0.602-0.483-0.898   c-0.01-0.018-0.02-0.037-0.03-0.054c-0.525-0.932-1.095-1.84-1.692-2.718l0,0c0.026,0.04,0.051,0.079,0.077,0.119l-0.757,0.46   c-0.004-0.005-0.008-0.011-0.012-0.017c2.742,3.997,4.942,8.634,4.141,13.527C8.65,57.67,3.368,62.448,1.312,68.743   C0.399,72.2,0.836,76.027,2.456,79.218c0.147,0.29,0.514,0.644,0.831,0.713c1.553,0.345,3.684-0.615,3.267-2.42   c-0.635-2.535-1.294-5.188-0.612-7.769c0.083-0.313,0.215-0.824,0.288-1.14c1.487-6.562,8.183-10.476,9.566-17.089   c1.084-5.915-2.318-11.246-5.604-15.859l-0.889,0.283C9.276,35.899,9.251,35.859,9.225,35.82z M5.163,78.729   c-0.296,0.133-0.813,0.225-1.136,0.232c-1.077,0.025-1.012-2.037,0.189-2.356C5.171,76.254,6.12,78.303,5.163,78.729z"/>
	<path fill="#9D4141" d="M4.989,21.4c-0.937,5.202,1.349,10.152,4.235,14.42c0.026,0.039,0.052,0.079,0.078,0.117l0.889-0.283l0,0   c-2.795-4.034-5.151-8.844-4.34-13.806c1.496-6.523,6.778-11.302,8.835-17.596C14.965,3.712,15.13,2.12,15.22,0h-1.127   c-0.074,2.066-0.195,3.601-0.388,4.087C11.094,10.708,6.505,14.989,4.989,21.4z"/>
	<path fill="#9D4141" d="M6.018,37.637l0.757-0.46c-0.026-0.04-0.051-0.079-0.077-0.119c-0.352-0.542-0.685-1.086-1.035-1.509   c-0.157-0.215-0.313-0.434-0.468-0.654c-2.95-4.178-5.438-9.307-3.815-14.484c1.745-4.38,5.254-7.714,7.691-11.683   c0.802-1.643,1.169-3.461,1.767-5.199C10.991,3.084,11.086,1.777,11.141,0h-0.846c-0.037,1.689-0.11,2.901-0.238,3.252   C9.946,3.558,9.842,4.077,9.77,4.394c-1.486,6.56-8.183,10.475-9.566,17.088C0.065,22.233,0.001,22.976,0,23.709v0.003   c-0.006,5.132,3.092,9.828,6.006,13.907C6.01,37.625,6.014,37.631,6.018,37.637z"/>
</g>
</svg>