<?xml version="1.0" encoding="UTF-8"?>
<svg xmlns="http://www.w3.org/2000/svg" viewBox="0 0 725.3 660.4">
  <style type="text/css">
    
	.st0{fill:#FCE4B3;}
	.st1{fill:#FCEEC8;}
	.st2{fill:#FDF5DD;}
	.st3{fill:#9D4141;}

  </style>
      <path class="st0" d="M388.3 471.1c-4.2-1.4-8.3-1-11.9 1.6 -1.5 1.1-1 2.4 0.9 2.4 3.7 0 7.4-0.5 10.9-1.5C390 473 390 471.6 388.3 471.1z"/>
      <path class="st0" d="M456.4 348.1c-0.5-1.8-1.3-1.9-1.9-0.1 -2.6 7.5-5.8 15-6.9 22.9 -0.3 1.9-0.2 4.9 0.1 6.8 1.9 12.1 9.3 22.5 17.9 31.1v-35.7C461.5 364.9 458.4 356.4 456.4 348.1z"/>
      <path class="st0" d="M403.3 470.6c-4.9-2.8-10.1-5.4-15.8-5.7 -1.9-0.1-2.1 0.9-0.4 1.7 5 2.5 10.3 4.4 15.7 5.3C404.7 472.2 404.9 471.5 403.3 470.6z"/>
      <path class="st0" d="M464.1 193.2c0.4 5.9 0.7 11.9 1.5 17.7v-19.1C464.6 191.1 464 191.6 464.1 193.2z"/>
      <path class="st0" d="M459.7 535.2c-1.9 0-2.1 1-0.6 2 2.2 1.5 4.4 3.1 6.5 4.7v-6.6C463.6 535.2 461.6 535.1 459.7 535.2z"/>
      <path class="st1" d="M459.6 175.5c-1.8 0.6-2 2.2-0.5 3.4 2.3 1.9 4.4 3.9 6.5 5.9v-10.5C463.7 174.5 461.7 174.9 459.6 175.5z"/>
      <path class="st1" d="M433.9 317.6c-10.7 27.8-22.4 55.5-38.7 80.6 -1 1.6-2.6 4.2-3.4 5.9 -10.7 21.1-23.5 41-40.5 57.5 -1.3 1.3-1.3 1.4 0.1 0.1 41.9-37.7 74.2-87.7 83.3-143.9C434.9 315.9 434.6 315.8 433.9 317.6z"/>
      <path class="st0" d="M411.7 195.5c-13.4-2.7-27.3-2.5-41-1.9 -10.7 0.6-15.2 11.4-19.9 19.8 -0.9 1.6-0.3 2.5 1.6 2 20.9-5.5 43.3-5.9 63.6 1.9 1.8 0.7 3.1-0.2 3.2-2.1C419.5 207.4 421 196.9 411.7 195.5z"/>
      <path class="st2" d="M454.1 613.1c-1.9-0.1-4.9-0.3-6.8-0.3 -30-0.7-57-15.4-85-24.5 -25.5-8.1-49.6-20.3-76-25.3 -21.6-3.4-37.2-27.1-60-22.2 -1.8 0.4-3.7 2.4-3.6 4.3 0.3 5.4 4.3 9.8 8.9 12.6 18.5 12.5 39.7 20.4 61.4 25.3 29.9 7.4 58.4 19.1 86 32.4 26.7 13.8 56.9 17 86.5 18.4v-20.3C461.7 613.5 457.9 613.4 454.1 613.1z"/>
      <path class="st2" d="M443.4 175.3c-1.8-0.4-3 1.1-2.5 3 3.2 11.9 8.1 23.4 9 35.8 2.2 26.1-4.7 51.8-7.5 77.6C438.9 367 395.5 436.3 335.8 480.5c-32.6 21.2-70.5 35.8-109.7 36.2 -7.7-0.6-5.8 7.5-4.2 13.5 0.5 1.8 2.3 3.8 4.1 4.2 18.1 3.9 40.1-2.5 58.4-7.3 34.4-9.7 63.3-32.2 88.2-57 47.6-42.2 81.2-102.2 83.9-166.6 5.1-36.5 8.9-73.9 2.3-110.5C457.1 184.6 451.7 177 443.4 175.3z"/>
      <path class="st0" d="M408.9 260.5c-14.7-17.3-37.8-26.3-60.1-27 -9.3-1.1-12.9 7.6-16.1 14.9 -0.8 1.7 0.1 3.2 2 3.4 27.2 2.9 54.4 13.1 72.8 33.9 1.3 1.4 2.6 1.1 3.2-0.7 2.2-6.3 5.3-13.3 2.4-19.1C412.1 264.2 410.1 261.9 408.9 260.5z"/>
      <path class="st1" d="M358.7 502.1c-15.2-2.4-27.1 8-38.7 16.3 -1.5 1.1-1.3 2.1 0.6 2.2 21.7 1 43.1-3.6 64.6-4.9 21.9-1.1 43.6-4.5 65-8.8 5.9-1 10.8-3.8 15.3-7.3v-12.6C430.7 496.5 395.1 504.2 358.7 502.1z"/>
      <path class="st1" d="M382.4 478.8c-12.7-0.1-22.3 8.5-31 16.7 -1.4 1.3-1 2.4 0.9 2.5 38.4 1.9 76.5-5 113.3-15.5v-18.8C438.6 471.8 410.7 477 382.4 478.8z"/>
      <path class="st0" d="M436.9 463.3c-10.5-4.3-20.8-9.2-31.4-13.3 -1.8-0.7-4.7-0.8-6.3 0.2 -2.7 1.7-4.9 4.3-6.8 6.9 -1.1 1.5-0.7 3.5 1 4.3 13.6 6.8 29.3 10.6 43.6 4.7C438.7 465.3 438.6 464 436.9 463.3z"/>
      <path class="st0" d="M441.4 513.9c-6.6 0.3-13.1 1.2-19.5 2.8 -1.8 0.5-1.9 1.6-0.1 2.2 7 2.3 14.4 1.5 20.4-2.9C443.8 514.9 443.3 513.8 441.4 513.9z"/>
      <path class="st1" d="M445.5 147.2c-11.1-6.8-24-10.3-36.9-7.9 -1.8 0.4-1.9 1.3-0.1 2 11.7 4.2 24.1 6.4 36.5 7.5C446.9 148.9 447.1 148.1 445.5 147.2z"/>
      <path class="st1" d="M400.6 144.1c-9.9-4.3-19.8 1.6-28.6 6.4 -1.6 0.9-1.6 2.3 0.1 3.1 25.5 11.6 53.7 16.9 81.7 17.3 1.9 0 4.9-0.2 6.8-0.5 1.7-0.2 3.4-0.5 5.1-0.7v-14.8C443.5 154 421.2 152.4 400.6 144.1z"/>
      <path class="st0" d="M319.4 201.9c-7.2 10.7-7.6 22.5-6.8 20.8 3.1-7 6.7-11.3 12.5-23C325.9 198 320.1 200.9 319.4 201.9z"/>
      <path class="st0" d="M405.3 170.4c-12.5-3.3-24.5-8.8-37-11.8 -1.8-0.4-4.9-0.7-6.7-0.2 -8 1.9-14.2 8.6-19.9 14.5 -1.3 1.4-0.9 2.1 1 1.8 24.5-4.3 49.5-0.6 71.5 11.1 1.7 0.9 2.5 0.2 2-1.6C414.2 178.3 412 171.7 405.3 170.4z"/>
      <path class="st0" d="M311.1 132.6c-30.7 1.1-57.5 19.5-81.2 37.4 -10.3 7.2-12.9 20-15.4 31.6 -0.4 1.8 0.5 2.5 2.1 1.4 22.1-15.5 43.4-32.6 68.4-43.2 11.9-4.5 20.3-14.3 27.6-24.4C313.6 133.8 313 132.5 311.1 132.6z"/>
      <path class="st1" d="M428.4 635c-40.2-3.9-73.3-29.9-111.7-40.2 -31.9-8.7-63.5-18.3-92.2-35.1 -1.6-0.9-1.9-0.6-0.6 0.7 11.1 11.2 25.9 18.1 38.9 27 1.6 1.1 4.1 2.7 5.8 3.7 37.5 21.2 78.1 36.7 119.5 48.3 25 7.8 51.4 11.5 77.7 11v-11.5C453.1 638.2 440.7 636.6 428.4 635z"/>
      <path class="st2" d="M420.9 172.5c-1.9-0.2-2.9 0.9-2.3 2.7 15.4 50.5 1.4 105-16.7 153 -13.4 33.3-28.7 66-49.2 95.6 -25.1 42.3-71.7 75.3-122.2 73.2 -1.9-0.1-4.9-0.7-6.8-0.3 -5.3 1-5.6 8.4-2.9 13.2 0 0 0.2 0.3 0.3 0.7s1.9 0.8 3.7 0.9c66.4 2 126.7-42.6 157.8-99.2 11.6-22.8 25.4-44.5 35.7-68 11.3-23.8 15.8-49.9 22.4-75.3 0.5-1.8 1.1-4.8 1.3-6.7 3.6-27.9 7.1-58.2-7.8-83.6C431.7 173.7 426 173.2 420.9 172.5z"/>
      <path class="st1" d="M252.1 488c-10.4-2.6-20.9-5.6-31.6-5.7 -1.9 0-3.3 1.6-2.9 3.4 0.1 0.4 0.2 0.8 0.2 1.1 0.4 1.8 2.4 3.5 4.3 3.8 10 1.1 20.1 0.7 30-1.1C253.9 489.1 253.9 488.4 252.1 488z"/>
      <path class="st1" d="M230.8 479.1c-5-2.3-9.2-4.5-12.1-6.1 -1.6-0.9-2.7-0.3-2.4 1.5 0.3 1.9 2.1 3.4 4 3.6 2.6 0.3 6.2 0.9 10.3 1.7C232.4 480.2 232.5 479.9 230.8 479.1z"/>
      <path class="st1" d="M277.6 481.8c-21.3-7.9-42.5-16.6-61.7-28.7 -1.6-1-2.7-0.3-2.5 1.5 0.4 2.7 0.8 5.4 1.5 8 0.5 1.8 2.3 4.1 3.9 5.2 16.7 11.4 38.3 21.1 58.7 16.1C279.4 483.4 279.4 482.4 277.6 481.8z"/>
      <path class="st1" d="M331.3 113.5c-38.3-11.5-83.8 10.6-100.7 46.8 -0.8 1.7-0.1 2.3 1.5 1.2 24.6-16.4 50.9-33.6 81.4-34.2 7.9 0.5 14-4.6 18.9-10.1C333.6 115.8 333.1 114.1 331.3 113.5z"/>
      <path class="st1" d="M299.5 466.7c-29.8-10.8-59.4-22.8-85.6-40.9 -1.5-1.1-2.8-0.4-2.9 1.5 -0.2 6.1 0 12.7 3.5 17.5 1.1 1.5 3.6 3.4 5.2 4.4 18.1 11.5 38 20.8 58.3 27.9 8.4 3.7 16.3-1.1 22.4-6.8C301.6 469 301.2 467.3 299.5 466.7z"/>
      <path class="st1" d="M227.6 328.2c-4.6 1.4-8.9 5.2-7.7 10.3 0.4 1.8 2.7 3.9 4.6 4 5.7 0.1 10.5-6.5 8.3-12C232.1 328.6 229.4 327.6 227.6 328.2z"/>
      <path class="st0" d="M265 210.5c-20.3 12.9-43 23.3-58.3 42.5 -6.5 7.8-4.5 18.8-3.8 28.1 0 0 0.1 0.4 0.1 0.9 0.1 0.5 1.2-0.2 2.5-1.6 14.3-14.6 28.4-29.8 46.8-39.3 11.3-5.1 11.4-18.5 14.6-29.2C267.3 210.1 266.6 209.5 265 210.5z"/>
      <path class="st0" d="M287.6 163.4c-25.5 13.5-50.9 27.8-72.4 47.2 -7.6 8.2-8.5 19.8-10.1 30.5 -0.3 1.9 0.7 2.6 2.3 1.5 15.6-10.4 29.7-23.1 46.1-32.1 1.7-0.9 4.5-2.1 6.1-3 16.1-8.3 17.2-29.8 28.7-43.2C289.5 162.8 289.3 162.5 287.6 163.4z"/>
      <path class="st0" d="M255.9 244.5c-16.5 8.1-30.5 20.8-42.9 34.2 -8.4 8.8-12.9 21.2-10.3 33.2 0 0 0.1 0.4 0.1 0.9 0.1 0.5 1-0.3 2.1-1.8 12.3-16.8 26.2-33.2 44.7-43.3 8.3-3.5 7.8-13.3 8.7-21.3C258.7 244.5 257.6 243.6 255.9 244.5z"/>
      <path class="st1" d="M223.5 301.8c-0.9-1.6-2.6-1.7-3.8-0.3 -2.7 3.2-5 5.6-6.6 7.7 -1.1 1.5-1.3 4.5-0.6 6.3 1.2 3.2 3 6.8 4.1 10.2 0.6 1.8 1.4 1.8 2.8 0.6 2.2-1.8 5.8-3 8.8-3.9 1.8-0.5 3.1-2.4 2.7-4.3C229.5 312.5 226.9 307.6 223.5 301.8z"/>
      <path class="st1" d="M208.1 77.3c-16.9-3.6-34.2 0.6-51 3 -16.6 2-27.6 15.7-39 26.8 -1.3 1.3-1.1 1.7 0.7 1 17.3-7.1 36.1-8.6 53.8-14.2 1.8-0.6 4.8-1.3 6.6-1.6 10.8-1.6 21.8-4 29.9-11.7C210.4 79.3 209.9 77.7 208.1 77.3z"/>
      <path class="st2" d="M104 509.5c-1.6-1-2.8 0-2.5 1.8 2.1 11.6 5.6 23.1 12.5 32.7 0.3 0.4 0.7 1 1.2 1.6 0.6 0.9 0.9 0.1 0.6-1.8C114.2 531.6 115 516.3 104 509.5z"/>
      <path class="st1" d="M146.2 466.3c-16.8-6.6-34.2-13.1-52.3-14.1 -1.9-0.1-2.1 0.7-0.5 1.6 17.4 10.4 36.4 18.6 56.4 22.2 1.9 0.3 3.3-1 3.3-2.8 0-1.4-0.2-2.8-0.8-3.8C151.2 467.7 147.9 467 146.2 466.3z"/>
      <path class="st1" d="M136.6 419.2c-1.6-1-3.1-0.1-3.2 1.8 -0.5 10.4-1.4 20.9 0.2 31.2 0.3 1.9 1.9 4.1 3.6 5 3.4 1.6 7 2.7 10.6 3.7 1.8 0.5 3.2-0.7 3-2.6C149.8 443.9 150 427.4 136.6 419.2z"/>
      <path class="st2" d="M155.7 531.2c-3.9-2.5-8.5-3.9-13.1-5 -1.8-0.4-2.9 0.7-2.5 2.5 3.9 15.6 7.6 31.8 16.1 45.6 0 0 0.3 0.4 0.6 0.8 0.3 0.4 1.1-0.6 1.6-2.4 3.4-11.7 3.3-24.3 0.8-36.2C158.8 534.7 157.3 532.2 155.7 531.2z"/>
      <path class="st1" d="M143.1 354.5c-0.1-1.9-0.6-1.9-1.1-0.1 -0.7 2.8-1.5 5.4-2 7.6 -0.4 1.8 0.2 4.6 1.2 6.2 0.3 0.5 0.6 0.9 0.9 1.4 1.1 1.5 2.1 1 1.9-0.9C143.7 365.3 143.5 360.8 143.1 354.5z"/>
      <path class="st1" d="M54.1 347.1c-1.5-1.2-3.2-0.8-3.8 0.9 -9.8 25.6-11.1 56.3 7.9 78.1 0.3 0.3 0.7 0.8 1 1.4 0.6 0.8 1.1-0.2 1.1-2.1 0.7-18.5 2.4-36.9 5.2-55.2 0.3-1.9 1.1-4.8 1.1-6.7C66.7 356.4 59.7 351.6 54.1 347.1z"/>
      <path class="st1" d="M43.3 337.2c-3.7 13-5 26.5-4.6 40 0 2.6 0.7-1.2 1.3-4.5 0.4-1.8 0.8-4.9 1.1-6.7 1.8-9.6 8.1-19.9 4.7-29C45.2 335.2 43.9 335.4 43.3 337.2z"/>
      <path class="st1" d="M92.2 382.6c-1.5-1.2-2.8-0.7-2.9 1.2 -1.8 19.5-1.6 39.4 1.7 58.7 0.3 1.9 2.1 3.9 3.9 4.4 3.2 0.9 6.5 1.5 9.9 1.9 1.9 0.2 3.6-1.1 3.8-3 1.1-13-1.7-26.2 0.1-39.3C111.1 395.1 100.2 388.9 92.2 382.6z"/>
      <path class="st1" d="M84.1 388.3c0.2-1.9 0.9-4.9 0.9-6.8 0.1-6.4-4.8-11.2-10.2-14.7 -1.6-1-3.3-0.3-3.8 1.5 -3.9 15.1-4.6 30.9-5.5 46.5 -0.6 10.6 0.1 23.5 10.7 29.3 2.1 1 6.5 3.2 8.3 2.1 1.6-1 0.7-4.7 0.6-6.5C84.3 422.5 82.1 405.4 84.1 388.3z"/>
      <path class="st1" d="M117.5 403.1c-1.6-1-3.3-0.1-3.6 1.8 -2.3 13.6-2.1 27.8 0.2 41.4 0.3 1.9 2 4.1 3.7 4.9 2.1 0.9 4.3 1.7 6.5 2.4 1.8 0.6 3.2-0.6 3.3-2.4C128.1 434.2 134 412.8 117.5 403.1z"/>
      <path class="st1" d="M411.7 92c-43.6-0.7-80.4 28.5-107 60.3 -20.6 21.2-32 49.4-37.8 77.9 -9.9 42-7.8 87 7.7 127.3 12.3 28.9 24.3 59.2 45.2 83 1.2 1.4 3 4 4.5 5.1 3.5 2.8 7.4 0.6 9.8-3.3 1-1.6 0.8-4.4-0.1-6.1 -5.1-9.1-12.5-16.8-18-25.6 -30-47.3-42.6-105.1-36.8-160.7 6.3-53.9 40.6-101.8 86.8-129.1 11.8-6.6 24.6-13.3 38.6-12.1 20.6 0.8 41 3.7 61.1 8.2V98.5C448.2 93.7 430.3 90.9 411.7 92z"/>
      <path class="st1" d="M443.6 85.5c-23.5-17.7-47.3-35.8-75.7-45 -20.6-6.1-39.4-18.3-61.2-19.8 -41.4-4.1-83.5 3.3-122.5 17.4 -45.2 20.7-90.3 50-112.4 96.2 -12.2 26.1-25.5 53.8-22.4 83.5 0 0 0 0.4 0.1 0.9 0 0.5 0.6-0.5 1.2-2.3 20-56.8 50.7-113.5 103.6-145.6 21.2-11 42.3-24.1 66.3-27.6 36.1-5.1 73.4-8.4 108.9 2 27.6 9 56 17.7 80 34.7 9.7 7.2 21.9 7 33.5 7.5C444.8 87.5 445.1 86.7 443.6 85.5z"/>
      <path class="st2" d="M393.3 114.2c-31.2 8.2-54.5 32.5-75.7 55.5 -27.7 34.8-38.1 80.8-33.9 124.6 3.4 49.8 21.7 99.3 55 136.8 1.3 1.4 3.1 1.2 4.1-0.3 4.1-6 10.1-13 5.3-19.7 -13-21.3-29.9-40.9-37.1-65.2 -0.5-1.8-1.4-4.7-2.1-6.5 -13.3-37.4-11.8-78.5-2.5-116.6 11.4-41.2 45.9-74.7 86.8-86.2 1.8-0.5 4.8-1 6.7-1.2 22.3-2.1 44.2-0.1 65.7 4.7v-18.3C441.8 116.8 417.6 110.2 393.3 114.2z"/>
      <path class="st2" d="M239.7 16.6C173.4 7.8 102.8 39.5 65.1 94.9c-23.4 39-38.4 84.4-36.9 130.4 0.9 26.2 13.5 49.9 25.8 72.3 22.9 34.9 51.9 65.2 82.8 93.2 1.4 1.3 3.4 3.7 5.1 4.6 4 2.2 2.9-8.2 1.7-14.5 -0.3-1.8-1.7-4.5-2.9-6 -21.7-26.9-45.8-52.1-66.6-79.8C51.6 264.1 37.6 224.2 46.7 186.1c9-30.5 20.6-61.2 41.5-85.8 19.6-26.5 49-42.5 76.8-58.7 23.2-12.6 49.3-17.7 74.8-23.7C241.6 17.4 241.6 16.8 239.7 16.6z"/>
      <path class="st2" d="M150.6 482.8c-21.8-8.4-44.9-13.9-64.9-26.6 -39.4-21.1-60.1-70.1-48.8-113.2 3.6-11 0.1-22.1-6.6-31 -1.1-1.5-2.7-1.2-3.3 0.5 -19.2 53.2-5.1 120.9 43.9 153.1 25.2 15.7 53.2 26.4 81.4 35.7 1.8 0.6 3.4-0.4 3.5-2.3 0.2-3.9 0-7.9-1-11.7C154.4 485.5 152.4 483.5 150.6 482.8z"/>
      <path class="st2" d="M152.6 507c-31.3-10.6-62.7-22.6-90.1-41.5 -26.7-19.9-42.8-51.5-47-84.2 -0.2-1.9-0.4-1.9-0.5 0 -0.4 40.6 17.6 83.4 54.5 103.5 26.3 17.2 55.3 29.8 85.1 39.7 1.8 0.6 3.4-0.5 3.5-2.3 0.3-3.7 0.2-7.5-0.9-10.9C156.6 509.4 154.4 507.6 152.6 507z"/>
      <path class="st2" d="M139.2 399.5C91.7 356.1 43.3 308.2 25.4 244.6c-0.5-1.8-1.2-1.8-1.5 0.1 -6.3 37.5 11.9 74.8 36.9 101.8 24.9 23.7 50.7 46.7 77.8 67.9 1.5 1.2 3.6 3.4 5.3 4.2 4.6 2.2 3.4-8.7 0.1-14.2C143 402.7 140.6 400.7 139.2 399.5z"/>
      <path class="st2" d="M109.9 547.2c-14.1-15.3-7.8-43.7-30.1-50.7 -1.8-0.6-3 0.7-2.6 2.5 4.9 23.4 11.1 48.6 27.5 66.6 1.3 1.4 3.6 3.4 5.1 4.5 4.6 3.2 9.7 5.8 15.1 6.8 1.9 0.4 3-1 2.3-2.8C123.5 563.9 117 555.2 109.9 547.2z"/>
      <path class="st1" d="M347 61.9C330.3 47.5 307.8 45 286.5 43.1c-1.9-0.2-2 0.3-0.3 1.1 11.3 5.4 22.1 11.8 32.3 19.1 8.1 5.3 18.2 0.6 27.5 0.6C348 64 348.4 63.1 347 61.9z"/>
      <path class="st1" d="M297.1 105c-29.3-4-62.5 3.9-79.9 29.5 -24.6 38.1-30.1 84.9-32.9 129.3 0.6 59.5 5.2 118.9 9.3 178.3 5.3 51.2 15.9 102.6 10.5 154.2 0 0 0 0.4 0 1 0 0.5 1.3 0.2 2.8-0.9 13.9-10.8 12.1-30.9 12-46.9 -4.2-66.6-16-132.5-18.6-199.3 -4.9-58.9-5.2-120.4 19.2-175.5 9.8-19 18.4-40.4 37.4-52.2 12-8.7 26.2-13.3 40.5-16.2C299 105.8 299 105.2 297.1 105z"/>
      <path class="st2" d="M353.6 97.3c-20.1-12.4-44.5-13-67.5-14.4 -44.3-2-89.8 24-106.8 65.7 -19.6 42.7-16.8 91-16.7 136.8 0.8 76.4 12.9 152 20.3 227.8 0.3 28.8 5.8 59-3.8 86.7 -0.6 1.8 0.3 3.4 2.2 3.3 10.1-0.5 19.2-7.9 19.2-18.7 3.4-60-12.1-119.1-13.7-178.9 -4.3-73.6-15-148.9 4.4-221.3 5-25.5 17.5-49.7 36.2-67.8 30.3-24.5 73.3-20.5 107.7-8.2 7.3 3.2 13.6-2.1 19-6.8C355.3 100.2 355.2 98.3 353.6 97.3z"/>
      <path class="st1" d="M348.7 70.1c-5.7-1.5-12.1-2.5-17.1 0.5 -1.6 1-1.2 2.7 0.5 3.4 6 2.3 13.6 4.4 18-0.2C351.4 72.6 350.6 70.6 348.7 70.1z"/>
      <path class="st2" d="M284.6 75.7c-26.6-5.5-55.9-2.9-78.9 12.4 -27.2 19.3-47.7 48.5-53.8 81.5 -4.4 24-10.2 48.1-9.4 72.6 0.3 85 7.1 169.9 18.4 254.2 1.9 19 3.8 38 4.8 57.2 0.5 9-1.1 18.4-6.4 25.7 -1.1 1.5-3.5 1.9-4.9 0.7 -19.6-15.9-8.6-54-34-64.2 -1.7-0.7-3.1 0.4-2.9 2.3 2.9 26.5 10 53.8 26.7 75 8.8 11.3 31 12 33.2-5 3.5-32 1.2-64.6-1.6-96.6 -8.6-60.7-13.8-121.8-18-182.9 0.5-56.4-7.1-117.2 21.3-168.7 18.3-40.1 62.7-61.9 105.4-63.4C286.4 76.4 286.4 76.1 284.6 75.7z"/>
      <path class="st0" d="M367.5 178.1c-8.9-0.2-18.9-0.6-24.9 7 -33.2 39-48.5 94.9-31.4 144.2 0 0 0.1 0.4 0.3 0.9 0.2 0.5 0.3-0.7 0.3-2.5 0.6-53.8 22.1-106.2 56.9-146.9C369.9 179.3 369.4 178.2 367.5 178.1z"/>
      <path class="st2" d="M323.7 565.7c-1.9 0.3-2 1.3-0.3 2.1 9.8 4.9 20.4 9.9 31.5 7.7 39.6-9.6 78.2-26.8 110.7-51.5v-18.8C425.8 538.2 374.3 556.7 323.7 565.7z"/>
      <path class="st1" d="M253.2 587.6c-8.5-5.7-16.8-11.6-25.8-16.5 -1.7-0.9-3.5-0.1-4 1.7 -0.5 1.7-0.9 3.5-1.2 5.3 -0.3 1.9 1 3.9 2.8 4.6 9 3.1 18.3 4.9 27.7 6.4C254.6 589.3 254.8 588.7 253.2 587.6z"/>
      <path class="st1" d="M136.2 218.7c-22.6 19.3-37.7 47.2-46.1 75.5 -0.5 1.8-1.7 4.7-1.9 6.6 -0.7 6.4 5.2 11.3 9.7 15.5 0 0 0.3 0.3 0.7 0.6 0.4 0.4 1.2-0.8 1.7-2.6 6.9-22.6 12.1-46.4 27.6-65.1 7.6-8 10.4-18.5 10.8-29.2C138.8 218.1 137.6 217.5 136.2 218.7z"/>
      <path class="st1" d="M266.7 66.8c-18.6-4.7-37.2-10.4-56.5-9.6 -1.9 0.1-4.9 0.1-6.8 0.1 -15.7 0.1-29.6 8.3-42.8 16.2 -1.6 1-1.4 1.5 0.5 1.3 17.7-2.5 35.5-4.3 53.3-1.8 1.9 0.3 4.9 0.4 6.8 0.2 15.1-1.8 30.1-5.6 45.5-5.6C268.4 67.6 268.5 67.3 266.7 66.8z"/>
      <path class="st1" d="M136.6 305.2c-4.5 11.5-9.8 25.9-12.4 36.9 -0.4 1.8 0.1 4.6 1.2 6.1 2.3 3.2 5.4 7.3 9.1 11.6 1.2 1.4 2.7 1.1 3.1-0.8 3.9-17.5 2.7-36 0.7-53.7C138.1 303.5 137.3 303.4 136.6 305.2z"/>
      <path class="st1" d="M118.2 228.9c-17.6 15.4-30.9 35.1-41.9 55.7 -0.9 1.7-0.9 4.4 0.2 5.9 1.3 1.9 2.8 3.7 4.3 5.4 0.3 0.4 0.8 0.9 1.3 1.4 0.7 0.8 1.6-0.1 2-2 5.9-24.5 20.3-45.4 34.7-65.8C119.9 227.9 119.6 227.7 118.2 228.9z"/>
      <path class="st1" d="M184.1 96.9c-13.4 0.5-25.6 7.7-37.4 13.4 -40.2 21.7-67.7 61-86.4 101.7 -5.8 13.4-10.1 30-2.7 43.6 0.2 0.4 0.5 0.9 0.9 1.5 0.5 0.8 1.3 0 1.9-1.8 17.3-53.9 53-102.2 101.1-132.5 9.2-6.4 16.5-15 23.9-23.3C186.5 98 186 96.8 184.1 96.9z"/>
      <path class="st1" d="M134.5 247.9c-16.1 20.5-24.8 45.8-30.4 70.9 -0.4 1.8 0 4.7 1.1 6.2 3.2 4.7 7.3 8.8 11.3 12.9 1.3 1.4 3.1 1.1 3.9-0.6 3-7 6-18.4 9.9-28.3 7.9-19.9 7.2-40.2 6.5-60.4C136.7 246.8 135.7 246.4 134.5 247.9z"/>
      <path class="st1" d="M140.2 186.7c-29.3 18.7-51.4 46.4-72.7 73.5 -1.2 1.5-3.4 3.7-4 5.5 -1.2 3.6 1.6 7.4 4.2 10.7 1.2 1.5 2.6 3.3 3.3 4 0.7 0.7 2.1 0 3.1-1.6 15.5-24.5 32.3-48.9 56-66.2 1.5-1.1 4.2-2.7 5.6-3.8 6-4.8 7.3-12.8 7.5-20.4C143.1 186.4 141.8 185.7 140.2 186.7z"/>
      <path class="st3" d="M387.9 639.4c-41.4-11.6-82-27.1-119.5-48.3 -1.6-0.9-4.2-2.6-5.7-3.7 -13-8.9-27.7-15.8-38.8-27 -1.3-1.3-1-1.7 0.6-0.7 28.7 16.8 60.3 26.4 92.2 35.1 38.4 10.3 71.6 36.3 111.7 40.2 12.3 1.6 24.8 3.2 37.2 3.8v-5.1c-29.7-1.4-59.8-4.6-86.5-18.4 -27.6-13.3-56.2-25-86-32.4 -21.6-5-42.9-12.8-61.4-25.3 -4.7-2.8-8.6-7.2-8.9-12.6 -0.1-1.9 1.7-3.9 3.6-4.3 22.9-4.9 38.4 18.9 60 22.2 26.4 5 50.5 17.2 76 25.3 28 9.1 55 23.9 85 24.5 1.9 0 4.9 0.2 6.8 0.3 3.8 0.3 7.6 0.4 11.5 0.4v-4.9c-35.9 0.6-71.3-12.7-104.1-26.8 -1.7-0.7-1.7-1.8 0.2-2.3 30.5-9 59.3-22.4 87.4-37.1 1.7-0.9 4.5-1.1 6.2-0.3 3.7 1.6 7.1 3.6 10.4 5.9v-6.1c-2.1-1.6-4.3-3.2-6.5-4.7 -1.5-1.1-1.3-2 0.6-2 2 0 4 0 5.9 0.1v-11.3c-32.5 24.8-71.1 41.9-110.7 51.5 -11.1 2.3-21.7-2.8-31.5-7.7 -1.7-0.8-1.5-1.8 0.3-2.1 50.6-9 102.1-27.6 141.9-60.5v-5.6c-4.5 3.5-9.4 6.2-15.3 7.3 -21.5 4.3-43.2 7.7-65 8.9 -21.5 1.3-43 5.9-64.6 4.9 -1.9-0.1-2.1-1.1-0.6-2.2 11.6-8.3 23.5-18.7 38.7-16.3 36.4 2.1 72-5.6 106.9-15.2v-4.5c-36.8 10.5-74.9 17.4-113.3 15.5 -1.9-0.1-2.3-1.2-0.9-2.5 8.8-8.2 18.4-16.8 31-16.7 28.2-1.7 56.1-7 83.2-15.1v-4.8c-0.4 0.2-0.9 0.3-1.3 0.5 -19.9 7.2-39-5.2-56.1-14.5 -1.7-0.9-2.1-2.8-1-4.3 12.2-16.6 22.2-34.6 33.4-51.8 1-1.6 2.6-1.5 3.5 0.2 5.6 10 12.9 19.3 21.5 27v-6.9c-8.7-8.6-16-19-17.9-31.1 -0.3-1.9-0.3-4.9 0-6.8 1.1-7.9 4.2-15.4 6.9-22.9 0.6-1.8 1.4-1.7 1.9 0.1 2.1 8.3 5.2 16.9 9.2 25v-13.7c-2.7-7.2-4.7-14.5-6.3-21.9 -0.4-1.8-0.7-4.9-0.6-6.8 0.6-21.3 5.6-42.2 7-63.4V210.9c-0.8-5.9-1-11.8-1.5-17.7 -0.1-1.6 0.5-2.1 1.5-1.4v-7c-2.1-2-4.2-4-6.5-5.9 -1.4-1.2-1.3-2.8 0.5-3.4 2.1-0.7 4-1.1 6-1.2v-4.5c-1.7 0.2-3.4 0.4-5.1 0.7 -1.9 0.3-4.9 0.5-6.8 0.5 -27.9-0.5-56.2-5.7-81.6-17.3 -1.7-0.8-1.7-2.1-0.1-3.1 8.8-4.8 18.6-10.8 28.6-6.4 20.7 8.3 42.9 9.9 65.1 10.9v-5c-6.6-0.5-12.2-2.2-19.6-5.8 -1.7-0.8-1.5-1.6 0.4-1.6 7.7 0.2 13.1 1.3 19.2 3v-5.6c-21.4-4.8-43.4-6.8-65.7-4.7 -1.9 0.2-4.9 0.7-6.7 1.2 -40.9 11.6-75.4 45.1-86.8 86.2 -9.3 38.1-10.8 79.3 2.5 116.6 0.6 1.8 1.6 4.7 2.1 6.5 7.2 24.3 24.1 43.9 37.1 65.2 4.8 6.7-1.1 13.6-5.3 19.7 -1.1 1.6-2.9 1.8-4.1 0.4 -33.3-37.5-51.6-87-55-136.8 -4.2-43.8 6.2-89.8 33.9-124.6 21.2-23 44.5-47.2 75.7-55.5 24.4-4 48.5 2.6 72.3 7.6v-4.9c-20.1-4.5-40.5-7.4-61.1-8.2 -14-1.3-26.7 5.5-38.6 12.1 -46.2 27.4-80.5 75.3-86.8 129.1 -5.7 55.6 6.9 113.4 36.8 160.7 5.6 8.8 12.9 16.5 18.1 25.6 0.9 1.6 1.1 4.5 0.1 6.1 -2.4 3.9-6.3 6.1-9.8 3.3 -1.5-1.2-3.2-3.7-4.5-5.1 -20.9-23.8-32.9-54.1-45.2-83 -15.5-40.3-17.7-85.3-7.7-127.3 5.8-28.5 17.2-56.7 37.8-77.9 26.7-31.8 63.5-61 107-60.3 18.6-1.1 36.4 1.7 53.9 6.6v-4.5c-7.1-2.3-13.9-5.3-19.2-10.9 -33-32-76.8-48.6-119.4-63.5 -16.5-5.1-34.1-6-51.3-4.9 -22.1 2.4-43.4-8.2-65.6-5 -41.6 4.8-84.2 17.8-115.5 46.8C54.3 88.2 34.4 138.6 25.8 187.8c-0.3 1.9-0.6 4.9-0.6 6.8 -1 30.5-12.5 61.1-4 91.4 5.7 15.2-1.9 30.2-4.2 45.2 -2.4 28.2-11.4 57.2-2.5 85.1 5.3 24 16.9 47.8 37.7 62 7.5 5.9 17.8 10.3 19.9 20.6 5.6 22.1 11.1 44.9 23.9 64.1 9.9 15.4 31.4 16.2 42 30.8 1.1 1.5 2.8 4.1 4.1 5.5 10.1 10.3 26.3 9.1 39.8 8.9 13.2-1.1 28.6-4 35.6-16.7 1.9-4.2 6.2-3.3 10.1-2.4 1.8 0.4 4.8 1.1 6.6 1.6 13.2 3.4 27 3.9 39.7 8.9 59.6 29.2 124.2 57 191.7 55.9v-5C439.3 651 413 647.2 387.9 639.4zM408.6 139.3c12.8-2.4 25.8 1.1 36.9 7.9 1.6 1 1.3 1.8-0.5 1.6 -12.4-1.1-24.7-3.3-36.5-7.5C406.7 140.6 406.8 139.6 408.6 139.3zM421.9 516.7c6.4-1.6 12.9-2.5 19.5-2.8 1.9-0.1 2.3 1 0.8 2.1 -6 4.3-13.4 5.2-20.4 2.9C420 518.3 420.1 517.2 421.9 516.7zM354.7 523.2c1.9-0.2 4.9-0.6 6.8-0.7 20.2-1.3 41.5-6.3 60.6 2 1.7 0.8 1.8 2.2 0.1 3.1 -31.3 17-66 28.5-101.4 33 -23.8 3.4-46.9-6.1-67.1-18 -1.6-1-1.4-2.1 0.4-2.5 14.1-3.3 28.3-6.3 41.9-11.5C314.7 521.1 335.1 525.7 354.7 523.2zM388.1 473.5c-3.5 1-7.2 1.5-10.9 1.5 -1.9 0-2.4-1.3-0.9-2.4 3.6-2.5 7.7-2.9 11.9-1.6C390 471.6 390 473 388.1 473.5zM402.8 471.9c-5.5-0.9-10.8-2.7-15.7-5.3 -1.7-0.8-1.5-1.8 0.4-1.7 5.6 0.3 10.9 2.8 15.8 5.7C404.9 471.5 404.7 472.2 402.8 471.9zM436.9 463.3c1.8 0.7 1.8 2 0.1 2.7 -14.4 6-30 2.2-43.6-4.6 -1.7-0.8-2.1-2.8-1-4.3 2-2.6 4.1-5.2 6.8-6.9 1.6-1 4.6-0.8 6.3-0.1C416.1 454.1 426.4 459 436.9 463.3zM413.6 256.7c-18.5-17-42.3-27.2-67.2-29.8 -1.9-0.2-2.2-1.2-0.6-2.2 20-12.7 47.9-11.8 68.9-1.9 1.7 0.8 3.6 3 3.9 4.8 1.7 8.8-1.1 18.7-2.2 28C416.2 257.5 415 258 413.6 256.7zM410.6 285c-0.6 1.8-2 2.1-3.2 0.7 -18.4-20.8-45.6-31-72.8-33.9 -1.9-0.2-2.7-1.7-2-3.4 3.2-7.3 6.8-15.9 16.1-14.8 22.4 0.7 45.5 9.7 60.1 27 1.2 1.4 3.3 3.7 4.1 5.4C415.9 271.7 412.8 278.7 410.6 285zM419.2 215.2c-0.1 1.9-1.4 2.8-3.2 2.1 -20.3-7.8-42.7-7.4-63.6-1.9 -1.8 0.5-2.5-0.4-1.5-2 4.7-8.4 9.2-19.2 19.9-19.8 13.6-0.6 27.5-0.8 41 1.9C421 196.9 419.5 207.4 419.2 215.2zM371.1 185c8.7-10.2 22.5-1.8 33.5 2.8 1.7 0.7 1.7 1.1-0.2 1 -10.6-0.7-21.2-0.6-31.9-0.9C370.7 187.8 369.9 186.4 371.1 185zM341.7 172.9c5.7-5.9 11.9-12.6 19.9-14.5 1.8-0.4 4.9-0.2 6.7 0.2 12.6 3 24.5 8.6 37 11.8 6.7 1.3 8.9 7.8 10.8 13.8 0.6 1.8-0.3 2.5-1.9 1.6 -22-11.7-47-15.4-71.5-11.1C340.8 175 340.4 174.2 341.7 172.9zM324 194.5c2.5-3.2 7.6-9.7 11.1-11.8 1.6-0.9 4.8-1.6 3.5-0.2 -4.6 5.1-5.9 8.9-8.6 11C328.7 194.6 322.8 196 324 194.5zM319.4 201.9c0.7-1 6.5-4 5.7-2.3 -5.8 11.7-9.4 16.1-12.5 23.1C311.8 224.4 312.2 212.6 319.4 201.9zM311.5 330.2c-0.2-0.5-0.3-0.9-0.3-0.9 -17.1-49.4-1.8-105.3 31.4-144.2 5.9-7.6 16-7.2 24.9-7 1.9 0.1 2.4 1.2 1.2 2.7 -34.8 40.7-56.3 93.1-56.9 146.9C311.8 329.5 311.7 330.7 311.5 330.2zM317.9 338.5c-1.3-26 1.3-52.8 9.9-77.5 0.6-1.8 2.7-3.3 4.6-3.4 26.5-1.1 53.8 11.3 70.3 32 6 6.6 2.7 15.7 0.3 23 -11.7 33.6-28.2 65.2-45.7 96.1 -0.9 1.6-2.2 2.4-2.9 1.6 -0.6-0.8-2-2.7-3-4.3C337.7 384.9 318.3 365 317.9 338.5zM268.9 357.7c13.3 32.6 27.7 65.9 51.7 92.1 1.3 1.4 1.7 3.9 0.5 5.4 -3.9 5.2-10.3 8.7-17 6.7 -30.3-5.9-57.5-22.3-83.7-38 -5.5-3.9-11.1-8.9-11.4-16.1 -2.8-23.1-3.4-46.5-5.1-69.7 -0.6-6.4 0.5-12.8 2.9-18.7 0.7-1.7 2.2-1.8 3-0.1 3.5 7.7 4.1 16.3 6.8 24.2 0.6 1.8 2.7 3.5 4.6 3.6 5.9 0.3 12-1.9 15.9-6.3 1.2-1.4 2-4.3 2-6.2 -0.5-13.6-7.5-29.2-11.9-37.8 -0.9-1.7-0.6-4.2 0.6-5.6 6.5-7.4 15.6-14.1 24.2-18.9 1.7-0.9 3-0.1 3.1 1.8C255.8 302.4 258.2 331.1 268.9 357.7zM220.4 482.2c10.7 0.2 21.2 3.2 31.6 5.7 1.8 0.5 1.8 1.1 0 1.5 -9.9 1.8-20 2.3-30 1.1 -1.9-0.2-3.9-1.9-4.3-3.7 -0.1-0.4-0.2-0.8-0.2-1.1C217.1 483.8 218.5 482.2 220.4 482.2zM216.3 474.5c-0.3-1.8 0.8-2.5 2.4-1.5 2.9 1.7 7.1 3.8 12.1 6.1 1.7 0.8 1.6 1.1-0.2 0.7 -4.1-0.8-7.6-1.4-10.3-1.7C218.4 477.9 216.6 476.3 216.3 474.5zM218.9 467.8c-1.6-1.1-3.4-3.4-3.9-5.2 -0.7-2.6-1.2-5.3-1.5-8 -0.2-1.9 0.9-2.5 2.5-1.5 19.2 12.2 40.4 20.8 61.7 28.7 1.8 0.7 1.8 1.7-0.1 2.1C257.2 488.9 235.6 479.2 218.9 467.8zM277.8 477.1c-20.3-7.1-40.1-16.4-58.3-27.9 -1.6-1-4.1-2.8-5.2-4.4 -3.5-4.9-3.7-11.5-3.5-17.5 0.1-1.9 1.4-2.5 2.9-1.4 26.2 18.1 55.9 30.1 85.6 40.9 1.8 0.6 2.2 2.3 0.8 3.6C294.2 476 286.2 480.8 277.8 477.1zM228.1 322.4c-3 0.9-6.5 2.1-8.7 3.9 -1.5 1.2-2.2 1.2-2.8-0.6 -1.1-3.4-2.9-7-4.1-10.2 -0.6-1.8-0.5-4.7 0.6-6.3 1.5-2.1 3.9-4.5 6.6-7.7 1.2-1.4 2.9-1.3 3.9 0.3 3.4 5.8 6 10.7 7.3 16.4C231.2 320 229.9 321.9 228.1 322.4zM232.8 330.4c2.2 5.6-2.6 12.2-8.3 12 -1.9 0-4.2-2.1-4.6-4 -1.2-5.1 3.1-8.9 7.7-10.3C229.4 327.6 232.1 328.6 232.8 330.4zM205.1 311c-1.1 1.5-2.1 2.4-2.1 1.9 -0.1-0.5-0.1-0.9-0.1-0.9 -2.6-12.1 1.8-24.4 10.3-33.2 12.4-13.4 26.4-26.1 42.9-34.2 1.7-0.8 2.8 0.1 2.6 1.9 -0.9 8-0.4 17.8-8.7 21.3C231.2 277.7 217.4 294.1 205.1 311zM266.7 211.9c-3.2 10.7-3.3 24.1-14.6 29.2 -18.3 9.6-32.5 24.7-46.8 39.3 -1.3 1.4-2.4 2.1-2.5 1.6 -0.1-0.5-0.1-0.8-0.1-0.8 -0.7-9.3-2.7-20.3 3.9-28.1 15.3-19.2 38-29.7 58.3-42.5C266.6 209.5 267.3 210.1 266.7 211.9zM288.3 164.3c-11.4 13.4-12.5 34.8-28.6 43.2 -1.7 0.9-4.5 2.1-6.1 3 -16.4 9.1-30.5 21.8-46.1 32.2 -1.6 1-2.6 0.4-2.3-1.5 1.7-10.7 2.6-22.3 10.1-30.5 21.5-19.4 47-33.6 72.4-47.2C289.3 162.5 289.5 162.8 288.3 164.3zM312.5 135.3c-7.3 10-15.6 19.9-27.5 24.4 -25 10.7-46.4 27.7-68.4 43.2 -1.5 1.1-2.5 0.5-2.1-1.4 2.5-11.6 5-24.4 15.4-31.6 23.8-17.9 50.6-36.3 81.2-37.4C313 132.5 313.6 133.8 312.5 135.3zM332.3 117.2c-5 5.6-11 10.7-18.9 10.2 -30.5 0.6-56.8 17.8-81.4 34.2 -1.6 1.1-2.3 0.5-1.5-1.2 17-36.1 62.4-58.3 100.8-46.8C333.1 114.1 333.6 115.8 332.3 117.2zM407.8 85.6c-13.7 1.7-26.9 5.5-40 9.7 -1.8 0.6-4.7 0.7-6.5 0.1 -9.2-3.3-17.1-10.9-27.1-12.2 -44-5.4-83.2-36-128.7-30.3 -1.9 0.2-1.9 0-0.1-0.6 18.5-6.1 38.3-7.1 57.6-8 25.6-0.2 45.8 18 64.5 33.2 8.4 6.9 26.2 7 30.1-4.4 0.6-1.8 0-4.7-1-6.3 -2.7-4-6.2-7.4-9.7-10.7 -1.4-1.3-1.1-1.7 0.6-0.9 20.2 9.6 41.5 16.9 61 28.3C409.9 84.4 409.7 85.3 407.8 85.6zM88.2 300.7c0.2-1.9 1.3-4.7 1.9-6.5 8.4-28.3 23.6-56.2 46.1-75.5 1.4-1.2 2.7-0.6 2.6 1.2 -0.3 10.7-3.1 21.2-10.8 29.2 -15.5 18.7-20.7 42.5-27.6 65.1 -0.5 1.8-1.3 3-1.7 2.6 -0.4-0.3-0.7-0.6-0.7-0.6C93.3 312 87.4 307.1 88.2 300.7zM84.2 295.2c-0.4 1.8-1.3 2.7-2 2 -0.5-0.5-1-1-1.3-1.4 -1.5-1.7-3-3.5-4.3-5.4 -1.1-1.5-1.1-4.3-0.2-5.9 10.9-20.5 24.3-40.2 41.9-55.7 1.4-1.2 1.7-1 0.6 0.6C104.4 249.8 90 270.7 84.2 295.2zM104.1 318.8c5.6-25.2 14.3-50.4 30.4-70.9 1.2-1.5 2.2-1.1 2.3 0.8 0.7 20.2 1.4 40.5-6.5 60.4 -3.9 9.9-7 21.2-9.9 28.3 -0.7 1.7-2.5 2-3.8 0.7 -4-4.1-8-8.2-11.3-12.9C104.1 323.5 103.7 320.6 104.1 318.8zM124.2 342.1c2.6-10.9 8-25.4 12.5-36.9 0.7-1.8 1.4-1.7 1.7 0.2 2 17.7 3.2 36.2-0.7 53.7 -0.4 1.8-1.8 2.2-3.1 0.8 -3.7-4.3-6.8-8.4-9.1-11.6C124.3 346.7 123.7 343.9 124.2 342.1zM140 362c0.5-2.3 1.2-4.8 2-7.6 0.5-1.8 1-1.8 1.1 0.1 0.4 6.3 0.7 10.8 1 14.3 0.2 1.9-0.8 2.4-1.9 0.9 -0.3-0.4-0.6-0.9-0.9-1.4C140.2 366.6 139.6 363.8 140 362zM135.6 208.7c-1.5 1.2-4.1 2.7-5.6 3.9 -23.7 17.3-40.4 41.7-55.9 66.2 -1 1.6-2.4 2.3-3 1.6 -0.7-0.7-2.2-2.5-3.3-4 -2.6-3.3-5.3-7.1-4.2-10.7 0.6-1.8 2.8-4 4-5.5 21.3-27 43.5-54.7 72.7-73.4 1.6-1 2.9-0.3 2.9 1.6C142.9 195.9 141.6 203.9 135.6 208.7zM133.7 185.7c-1.6 1-4.2 2.6-5.7 3.8 -22.6 17.7-41.9 39.5-59.4 62.1 -1.2 1.5-2 2.3-1.9 1.8s0.6-2.4 1.2-4.2c15.5-48.5 48.5-91.9 92-118.8 1.6-1 2-0.5 1 1.1C150.1 148.9 151.8 174.1 133.7 185.7zM60.3 255.3c-0.6 1.8-1.4 2.6-1.9 1.8 -0.3-0.5-0.6-1.1-0.9-1.5 -7.4-13.6-3.1-30.2 2.7-43.6 18.8-40.7 46.2-80 86.5-101.7 11.9-5.8 24-12.9 37.4-13.4 1.9-0.1 2.4 1.1 1.1 2.6 -7.4 8.3-14.7 16.9-23.9 23.3C113.3 153 77.6 201.4 60.3 255.3zM64.8 193.9c0.1-0.5 0.8-2.3 1.6-4.1 9-20.5 19.3-40.7 32-59.2 8.7-13.9 24.8-20 40.1-23.5 1.8-0.4 2.1 0.1 0.5 1.2 -31.1 20.9-55.9 50.2-72.9 83.5C65.2 193.4 64.7 194.4 64.8 193.9zM179.2 92.3c-1.9 0.3-4.8 1-6.6 1.6 -17.7 5.6-36.6 7.1-53.8 14.2 -1.7 0.7-2 0.3-0.7-1 11.4-11.1 22.4-24.8 39-26.8 16.8-2.4 34.1-6.6 51-3 1.9 0.4 2.4 2 1 3.3C201 88.3 190 90.7 179.2 92.3zM161 74.8c-1.9 0.3-2.1-0.3-0.5-1.3 13.2-7.9 27.1-16.2 42.8-16.2 1.9 0 4.9 0 6.8-0.1 19.3-0.9 37.9 4.9 56.5 9.6 1.8 0.5 1.8 0.8-0.1 0.8 -15.4 0-30.3 3.9-45.4 5.6 -1.9 0.2-4.9 0.1-6.8-0.2C196.6 70.5 178.7 72.4 161 74.8zM346.1 64c-9.3 0-19.4 4.7-27.5-0.6 -10.2-7.3-21-13.7-32.3-19.1 -1.7-0.8-1.6-1.3 0.3-1.1 21.3 1.9 43.8 4.4 60.4 18.8C348.4 63.1 348 64 346.1 64zM348.7 70.1c1.8 0.5 2.7 2.4 1.4 3.8 -4.4 4.5-12 2.5-18 0.2 -1.8-0.7-2.1-2.4-0.5-3.4C336.6 67.6 343 68.6 348.7 70.1zM306.7 20.8c21.8 1.5 40.6 13.7 61.2 19.8 28.4 9.1 52.2 27.3 75.7 45 1.5 1.1 1.2 2-0.7 1.9 -11.6-0.5-23.8-0.3-33.5-7.5 -24-17-52.4-25.7-80-34.7 -35.5-10.4-72.8-7.1-108.9-2 -24 3.6-45.1 16.6-66.3 27.7C101.3 102.9 70.6 159.6 50.6 216.4c-0.6 1.8-1.1 2.8-1.2 2.3 0-0.5-0.1-0.9-0.1-0.9 -3.1-29.6 10.2-57.3 22.4-83.4 22.1-46.3 67.3-75.6 112.5-96.2C223.2 24.1 265.2 16.7 306.7 20.8zM65.1 94.9c37.8-55.4 108.3-87 174.7-78.3 1.9 0.3 1.9 0.8 0.1 1.3 -25.5 6-51.6 11.1-74.8 23.7 -27.9 16.2-57.2 32.3-76.8 58.7 -20.8 24.6-32.4 55.3-41.4 85.8 -9.1 38.1 4.9 78 27.2 108.9 20.8 27.7 45 52.9 66.6 79.8 1.2 1.5 2.5 4.2 2.9 6 1.2 6.3 2.4 16.7-1.7 14.5 -1.7-0.9-3.7-3.3-5.1-4.6 -30.8-28-59.9-58.3-82.7-93.2 -12.3-22.5-24.8-46.2-25.8-72.3C26.7 179.3 41.6 133.9 65.1 94.9zM23.8 244.7c0.3-1.9 1-1.9 1.5-0.1C43.3 308.2 91.7 356.1 139.2 399.5c1.4 1.3 3.8 3.2 4.8 4.9 3.2 5.5 4.5 16.5-0.1 14.3 -1.7-0.8-3.9-3.1-5.3-4.2 -27.1-21.2-52.9-44.1-77.8-67.8C35.7 319.5 17.5 282.2 23.8 244.7zM108.4 445.8c-0.1 1.9-1.9 3.2-3.8 3 -3.3-0.4-6.6-1-9.8-1.9 -1.8-0.5-3.5-2.5-3.9-4.4 -3.3-19.3-3.5-39.2-1.7-58.7 0.2-1.9 1.5-2.4 3-1.2 8 6.3 19 12.5 16.3 24C106.7 419.7 109.4 432.8 108.4 445.8zM93.8 452.2c18.2 1.1 35.5 7.5 52.4 14.2 1.8 0.7 5 1.4 6 3 0.6 1.1 0.8 2.4 0.8 3.9 0.1 1.9-1.4 3.2-3.3 2.9 -20-3.6-39-11.8-56.4-22.2C91.7 452.9 91.9 452.1 93.8 452.2zM113.9 404.9c0.3-1.9 2-2.8 3.7-1.8 16.4 9.8 10.6 31.1 10.1 48 -0.1 1.9-1.5 3-3.3 2.4 -2.2-0.7-4.4-1.5-6.5-2.4 -1.7-0.8-3.4-3-3.7-4.8C111.8 432.7 111.6 418.5 113.9 404.9zM147.9 460.9c-3.6-1-7.2-2.1-10.6-3.7 -1.7-0.8-3.3-3.1-3.6-4.9 -1.6-10.3-0.7-20.8-0.2-31.2 0.1-1.9 1.6-2.8 3.2-1.8 13.4 8.2 13.2 24.6 14.3 39.1C151.1 460.2 149.8 461.4 147.9 460.9zM50.3 348c0.7-1.8 2.4-2.1 3.9-0.9 5.5 4.5 12.5 9.3 12.5 16.4 0 1.9-0.8 4.9-1.1 6.7 -2.8 18.3-4.6 36.7-5.2 55.2 -0.1 1.9-0.6 2.8-1.1 2.1 -0.4-0.5-0.8-1-1-1.3C39.1 404.3 40.5 373.6 50.3 348zM41.1 365.9c-0.3 1.9-0.8 4.9-1.1 6.7 -0.6 3.2-1.3 7.1-1.3 4.5 -0.4-13.4 1-27 4.6-40 0.5-1.8 1.9-2 2.5-0.2C49.2 346 42.9 356.3 41.1 365.9zM65.5 414.8c0.9-15.5 1.6-31.3 5.5-46.5 0.5-1.8 2.2-2.5 3.8-1.5 5.4 3.5 10.3 8.3 10.2 14.7 0 1.9-0.7 4.9-0.9 6.8 -2 17.1 0.2 34.2 1 51.3 0.1 1.9 1 5.6-0.6 6.5 -1.8 1.1-6.2-1-8.3-2.1C65.6 438.3 64.9 425.4 65.5 414.8zM27 312.6c0.6-1.8 2.2-2 3.3-0.5 6.7 8.9 10.2 20 6.6 31 -11.3 43.1 9.4 92.1 48.8 113.2 20 12.7 43.1 18.3 64.9 26.6 1.8 0.7 3.8 2.7 4.2 4.5 1 3.8 1.2 7.8 1 11.7 -0.1 1.9-1.7 2.9-3.5 2.3 -28.1-9.3-56.2-20-81.4-35.7C21.9 433.5 7.8 365.7 27 312.6zM69.5 484.8c-36.9-20-54.9-62.9-54.5-103.5 0-1.9 0.2-1.9 0.5 0 4.2 32.7 20.3 64.3 47 84.2 27.4 18.9 58.8 30.9 90.1 41.5 1.8 0.6 4.1 2.4 4.7 4.2 1.1 3.5 1.2 7.2 0.9 10.9 -0.1 1.9-1.7 2.9-3.5 2.3C124.8 514.6 95.8 501.9 69.5 484.8zM159.2 536.6c2.4 11.9 2.6 24.5-0.8 36.2 -0.5 1.8-1.3 2.9-1.6 2.5 -0.3-0.4-0.6-0.8-0.6-0.8 -8.5-13.8-12.2-30-16.1-45.6 -0.5-1.8 0.7-3 2.5-2.5 4.6 1.1 9.2 2.4 13.1 5C157.3 532.2 158.8 534.7 159.2 536.6zM115.2 545.6c-0.4-0.6-0.9-1.2-1.2-1.6 -6.9-9.6-10.4-21.2-12.5-32.7 -0.3-1.9 0.9-2.8 2.5-1.8 11 6.8 10.2 22.2 11.8 34.4C116.1 545.8 115.8 546.5 115.2 545.6zM125 576.8c-5.5-1-10.6-3.6-15.1-6.8 -1.5-1.1-3.8-3.1-5.1-4.5 -16.4-17.9-22.6-43.1-27.5-66.6 -0.4-1.8 0.8-3.1 2.6-2.5 22.3 7 16 35.5 30.1 50.8 7.1 8 13.6 16.7 17.3 26.8C127.9 575.8 126.8 577.2 125 576.8zM144.2 593c-16.7-21.2-23.8-48.5-26.7-75 -0.2-1.9 1.1-3 2.9-2.3 25.4 10.2 14.4 48.3 34 64.2 1.5 1.2 3.8 0.9 5-0.7 5.3-7.3 7-16.8 6.4-25.7 -0.9-19.1-2.9-38.1-4.8-57.2 -11.3-84.2-18.1-169.2-18.4-254.1 -0.8-24.6 5-48.6 9.4-72.6 6.1-33 26.6-62.3 53.8-81.5 23-15.3 52.3-17.9 78.9-12.4 1.9 0.4 1.8 0.8-0.1 0.8 -42.7 1.5-87.1 23.2-105.4 63.4 -28.4 51.5-20.7 112.2-21.3 168.7 4.2 61.1 9.4 122.2 18 182.9 2.8 32 5 64.6 1.6 96.6C175.2 605.1 152.9 604.3 144.2 593zM200.3 584.5c0 10.9-9.1 18.3-19.2 18.8 -1.9 0.1-2.8-1.5-2.2-3.3 9.7-27.8 4.1-57.9 3.8-86.7 -7.4-75.8-19.5-151.4-20.3-227.8 0-45.8-2.9-94.1 16.7-136.8 17-41.6 62.6-67.7 106.9-65.7 23 1.4 47.4 2 67.5 14.4 1.6 1 1.7 2.9 0.3 4.1 -5.4 4.7-11.8 10-19 6.8 -34.4-12.3-77.5-16.3-107.7 8.2 -18.6 18.1-31.2 42.3-36.2 67.8 -19.3 72.4-8.6 147.8-4.4 221.4C188.2 465.4 203.7 524.4 200.3 584.5zM206.7 596.3c-1.5 1.2-2.8 1.5-2.8 1 0-0.5 0-1 0-1 5.5-51.5-5.2-103-10.4-154.2 -4.1-59.3-8.7-118.7-9.3-178.3 2.9-44.3 8.3-91.1 33-129.2 17.4-25.6 50.6-33.5 79.9-29.5 1.9 0.3 1.9 0.8 0 1.2 -14.4 2.9-28.5 7.5-40.5 16.2 -19 11.8-27.6 33.2-37.4 52.2 -24.4 55.1-24.1 116.6-19.2 175.5 2.6 66.8 14.5 132.7 18.6 199.3C218.8 565.4 220.6 585.4 206.7 596.3zM223.6 496.7c1.9-0.3 4.9 0.3 6.8 0.3 50.6 2.1 97.1-31 122.3-73.2 20.5-29.6 35.8-62.3 49.2-95.6 18.1-48 32.1-102.5 16.7-153 -0.5-1.8 0.5-3 2.3-2.7 5.1 0.7 10.8 1.2 13.2 6.2 14.9 25.4 11.4 55.7 7.8 83.6 -0.2 1.9-0.8 4.9-1.3 6.7 -6.6 25.3-11.1 51.5-22.4 75.3 -10.3 23.5-24.1 45.2-35.7 68 -31.2 56.6-91.4 101.2-157.8 99.2 -1.9-0.1-3.6-0.5-3.7-0.9s-0.3-0.7-0.3-0.7C218 505.1 218.3 497.7 223.6 496.7zM434.6 317.8c-9.1 56.3-41.4 106.2-83.3 143.9 -1.4 1.3-1.4 1.2-0.1-0.1 17-16.5 29.8-36.5 40.5-57.5 0.9-1.7 2.4-4.3 3.4-5.9 16.4-25 28-52.7 38.7-80.6C434.6 315.8 434.9 315.9 434.6 317.8zM226 516.7c39.2-0.4 77.1-14.9 109.7-36.2C395.5 436.3 438.9 367 442.4 291.7c2.9-25.8 9.7-51.5 7.5-77.6 -0.9-12.4-5.8-23.9-9-35.8 -0.5-1.8 0.7-3.3 2.5-3 8.3 1.7 13.7 9.3 15.3 17.5 6.6 36.6 2.8 74-2.3 110.5 -2.7 64.4-36.3 124.4-83.9 166.6 -24.9 24.9-53.7 47.3-88.2 57 -18.4 4.8-40.3 11.3-58.4 7.3 -1.8-0.4-3.7-2.3-4.1-4.2C220.3 524.2 218.3 516.1 226 516.7zM252.7 589c-9.4-1.5-18.7-3.3-27.6-6.4 -1.8-0.6-3.1-2.7-2.8-4.5 0.3-1.8 0.7-3.5 1.2-5.3 0.5-1.8 2.3-2.6 4-1.7 9 4.9 17.3 10.8 25.8 16.5C254.8 588.7 254.6 589.3 252.7 589z"/>
      <path class="st1" d="M501.4 263.4c-2 18.7-11.7 37.7-11.7 55.4 0 1.9 1.3 4.4 2.9 5.5 1.1 0.7 2.2 1.4 3.3 2 1.7 0.9 3.6 0.1 4.2-1.7 6.4-19.6 7.5-41.1 2.6-61.2C502.1 261.4 501.6 261.5 501.4 263.4z"/>
      <path class="st0" d="M466.9 228.3c-0.8 9-1.4 18.9 4.8 26 1.4 1.8 4.5 1.9 6.3 0.5 1.5-1.1 1.8-4.4 1.8-6.3 0.2-7.9-5-15.1-10.3-21.1C468.3 226 467.1 226.4 466.9 228.3z"/>
      <path class="st0" d="M472.1 415.2c10.5 7.8 22.8 15.2 36.1 16 1.9 0.1 4.9-0.4 6.4-1.5 4.3-3.2 6.2-9.2 8.7-14.3 0.8-1.7 0.2-2.8-1.7-2.6 -26.3 1.7-45.2-17.2-56.5-39.8v35.8C467.4 411.1 469.7 413.2 472.1 415.2z"/>
      <path class="st0" d="M468.4 216.6c5.7 2.4 8.2-8.9 5.3-13.9 -2.2-3.8-5.1-7.2-8-10.5 -0.2-0.2-0.4-0.4-0.6-0.5v19.1c0 0.1 0 0.2 0 0.4C465.4 213.1 466.6 215.9 468.4 216.6z"/>
      <path class="st1" d="M494.8 506.3c-1.8 0.6-1.7 1.4 0.2 1.7 18.2 2.7 35.9 8.8 49.1 22.1 1.3 1.3 1.9 1 1.1-0.7C537.1 510.6 514.2 499.8 494.8 506.3z"/>
      <path class="st0" d="M494.3 569.8c1.2 1.5 2.7 4.3 4.4 5.2 3.1 1.7 6.8-1.2 9.6-4.2 1.3-1.3 2-4 1.4-5.8 -2.7-8.6-8-16.6-14.9-22.4 -1.4-1.2-4.1-2.6-5.9-3.2 -7.7-2.5-15.7-3.8-23.8-4.1v6.7C475.9 550 485.9 559.1 494.3 569.8z"/>
      <path class="st1" d="M504 332.4c-0.8 4.7-2.8 10.6-0.3 14.8 1 1.6 3.2 3.8 4.8 4.9 5.8 4.1 10.7-2.8 12.2-9.3 0.4-1.8 0.8-4.9 1.1-6.7 7.4-39.2 5.6-81.1-13-117.1 -0.9-1.7-2.2-4.4-2.9-6.2 -7.5-17.5-21-40.2-40.7-38.5v10.5c19.7 19.6 30.7 46.2 40.4 71.9C514.4 281.2 509.6 307.8 504 332.4z"/>
      <path class="st2" d="M552.1 590.7c0.8-1.7 1.7-4.6 2-6.5 2.2-12.4 0.9-25.9-4.3-37.4 -0.8-1.7-2.4-4.3-3.5-5.8 -13-17-34.5-28.4-56-26.9 -1.9 0.1-4.8 1-6.4 1.9 -5.8 3.3-10.9 7.9-16 12.3 -1.4 1.2-1.1 2.3 0.8 2.6 17.9 2.1 35.2 6.9 51.5 14.7 1.7 0.8 4.5 2 6.2 2.9 13 7 15.5 27.1 5.5 37.8 -15.8 20.2-41.8 27.2-66.8 27.3v20.3c5.4 0.3 10.7 0.5 16 0.6C510.8 635.4 539.7 617.6 552.1 590.7z"/>
      <path class="st1" d="M480.9 484.2c1.3-1.3 1-2-0.8-1.4 -5 1.4-9.9 2.8-14.9 4.2v12.6C470.8 495.1 475.8 489.3 480.9 484.2z"/>
      <path class="st1" d="M504.8 451.8c0.8-1.7 0-2.5-1.7-1.8 -12.4 5.2-25.1 9.7-38 13.6v18.9c4.2-1.2 8.3-2.4 12.4-3.7C490.7 475.1 499.1 463.6 504.8 451.8z"/>
      <path class="st2" d="M682.1 351.5c-31.7 38.7-78.2 59.1-123.9 76.5 -1.8 0.7-4.7 1.6-6.4 2.3 -10.5 4.2-16.3 14.3-20.7 24.5 -0.7 1.7 0.1 2.7 1.9 2 35.5-12.5 70.6-27.2 101.3-49.3 20.2-13.6 44.3-30 49.4-55.3C684 350.4 683.3 350 682.1 351.5z"/>
      <path class="st1" d="M521.9 164.6c-11.3-6.9-24.2-10.4-37.4-9.3 -1.9 0.2-4.9 0.3-6.8 0.2 -4.2-0.2-8.4-0.3-12.6-0.5v14.8c18.6-2.4 37.5-2.7 56.2-3.2C523.2 166.5 523.5 165.6 521.9 164.6z"/>
      <path class="st1" d="M682.1 315.9c-21 44.3-69.6 65.7-112.9 82.6 -11.8 3.7-16.7 15.5-21.9 25.8 -0.8 1.7-0.1 2.5 1.6 1.8 37.6-15.1 77.2-28.8 107.9-56.4 15.9-12.9 33.1-31.8 27.7-53.6C684 314.2 682.9 314.2 682.1 315.9z"/>
      <path class="st1" d="M525 640.8c27.4-12.1 50.5-38.3 51-69.4 3-30.3-7.8-64-35.1-80 -1.6-0.9-4.2-2.6-5.9-3.4 -6-2.7-21.2 3.6-28.8 6 -0.8 1-1.6 1.9-2.4 2.8 -1.3 1.4-1 2.4 0.9 2.5 15.3 1 31.8 5.4 39.3 20 10.1 19.9 19.6 42.8 15.3 65.4 -0.3 1.9-1.3 4.7-2.2 6.4 -10.5 21.5-29.6 39.9-53.3 45.4 -12.7 2.6-25.6 3-38.5 2.3v11.5c18-0.4 36-2.8 53.4-7.4C520.3 642.5 523.2 641.5 525 640.8z"/>
      <path class="st1" d="M675.9 239c19.3 19.6 23.9 47.5 35.6 71.5 0.8 1.7 1.7 1.5 1.7-0.4 0.5-17.2-5.9-33.8-12.6-49.4 -25.4-60.5-81.9-101.9-140.7-126.9 -31.6-10.5-62.5-26.3-94.8-35.3v18.3c23.4 5.3 46.3 12.8 68.3 22.2C588.8 158.7 636 196.5 675.9 239z"/>
      <path class="st1" d="M624 163.1c-1.8-0.7-1.9-0.4-0.3 0.7 37.6 24.4 68.4 59.8 84.9 101.7 0.7 1.8 1.6 3.9 2 4.7 0.4 0.9 0.6 0 0.4-1.9C705.8 220.5 667.5 180 624 163.1z"/>
      <path class="st2" d="M650.4 245.3c18.7 23 37.7 49.1 39.3 79.7 0.1 1.9 0.3 4.9 0.5 6.8 2 23.3-10 45.9-27.7 60.7 -36.8 30.6-79.8 53.1-125.2 67.8 -12.6 3.2-18.4 14-24.8 24.3 -1.2 1.9 44.8-14.5 65.9-25.2 1.7-0.9 7-2.6 8.7-3.3 32.8-11.6 63.4-29.3 89.7-52.1 20.4-20.5 37.7-49.8 30.9-79.7 -7.5-30.7-17.2-62.6-39.4-86.1 -23.7-25.8-51.7-47.2-80.1-67.6 -35.5-22.2-75.9-35.5-115.9-47.3 -2.5-0.5-5-1-7.4-1.5v18.3c42.9 9.6 83.7 30.4 121.1 52.6C609.1 208.1 633.1 223.3 650.4 245.3z"/>
      <path class="st2" d="M517.1 469.6c1.1-1.6 2.6-4.2 3.4-5.9 20-39 46.1-77.4 47.9-122.6 5.4-49.8-9.2-99.5-30.9-143.9 -4.1-7.5-7.3-16.1-13.6-22.1 -1.4-1.3-4-2.8-5.9-3.2 -5.7-1.4-11.8-0.5-17.7 0.4 -1.9 0.3-2.3 1.7-1 3 41.7 44.8 56.9 110.1 50.6 170 -6.8 43.6-28.3 83.3-49.5 121.5 -0.9 1.7-2.6 4.2-3.7 5.7 -9.3 12.2-20 23.1-31.6 32.7v18.8C485.1 508.7 502.8 490.6 517.1 469.6z"/>
      <path class="st3" d="M546.7 633.5c48.9-34.1 45.6-120.2-7.1-148.9 -1.7-0.9-1.6-2.2 0.1-3 50.6-22.6 106.2-39.1 146-79.8 23.2-25 31-59.1 32.9-92.2 0.1-1.9-0.1-4.9-0.4-6.8 -3.1-21.7-0.9-44.4-9.3-65.1 -19.4-45-61.4-76.3-107.6-89.9 -1.8-0.5-4.6-1.6-6.3-2.5 -35.6-18.2-73.7-30.7-110.8-45.5 -6.1-2.3-12.7-3.8-19-5.8v4.5c32.3 9 63.2 24.8 94.8 35.3 58.8 25 115.3 66.4 140.7 126.9 6.7 15.6 13.1 32.2 12.6 49.4 0 1.9-0.9 2.1-1.7 0.4 -11.7-23.9-16.3-51.8-35.6-71.5 -39.9-42.5-87-80.3-142.5-100 -22-9.4-44.9-16.9-68.3-22.2v5c2.5 0.5 5 1 7.4 1.5 40 11.8 80.3 25.1 115.9 47.3 28.4 20.3 56.4 41.8 80.1 67.6 22.2 23.5 31.9 55.4 39.4 86.1 6.8 29.9-10.5 59.2-30.9 79.7 -26.3 22.8-56.9 40.5-89.7 52.1 -1.8 0.6-7 2.4-8.7 3.3 -21.1 10.7-67.1 27.2-65.9 25.2 6.4-10.3 12.2-21.1 24.8-24.2 45.5-14.7 88.5-37.2 125.2-67.8 17.6-14.8 29.7-37.4 27.7-60.7 -0.2-1.9-0.4-4.9-0.5-6.8 -1.6-30.6-20.6-56.7-39.3-79.7 -17.4-22-41.3-37.2-64.3-52.7 -37.4-22.2-78.2-43-121.1-52.5v5.6c3 0.8 6.1 1.8 9.7 2.9 1.8 0.5 1.8 1.2-0.1 1.3 -3.5 0.2-6.6 0.3-9.6 0.1v5c4.2 0.2 8.4 0.4 12.6 0.5 1.9 0.1 4.9-0.1 6.8-0.2 13.2-1 26.1 2.4 37.4 9.3 1.6 1 1.3 1.9-0.5 1.9 -18.8 0.4-37.6 0.8-56.2 3.2v4.5c19.8-1.8 33.2 21 40.8 38.5 0.8 1.7 2.1 4.5 2.9 6.2 18.5 36 20.4 77.9 13 117.2 -0.3 1.9-0.7 4.9-1.1 6.7 -1.5 6.6-6.4 13.4-12.2 9.3 -1.5-1.1-3.8-3.2-4.8-4.8 -2.5-4.2-0.5-10.1 0.3-14.8 5.7-24.6 10.4-51.3 1.6-75.8 -9.7-25.7-20.7-52.3-40.4-71.9v7c0.2 0.1 0.4 0.3 0.6 0.5 2.9 3.3 5.8 6.6 8 10.5 2.9 5 0.4 16.3-5.3 13.9 -1.7-0.7-3-3.5-3.2-5.4 0-0.1 0-0.2 0-0.3v56.4c0.2-3.2 0.3-6.3 0.3-9.5 0-1.9 1.3-2.7 2.9-1.7 4.6 3 9.7 7 12.7 2.6 1.1-1.5 2.3-4.3 3-6.1 5.6-14.2-19.2-25.9-7.4-37.7 1.3-1.3 3.6-1 4.8 0.5 22.5 29.7 13.1 69.1 1.8 101.5 -4.8 12.7 19.1 10.4 14.2 22.7 -3.6 10.4 6.4 19.7 16.3 20 1.9 0.1 4.3-1.5 5.3-3.1 8.5-13.9 9.2-31 10.9-46.9 4.8-41.8-10.3-86-30.2-119 -3.5-5.8-8.2-10.3-13.1-16.2 -1.2-1.4 0.8-2.6 2.4-1.5 11 7.4 18.7 18.7 25.7 29.8 35.2 58.2 43.5 134.4 14.5 196.8 -5.2 13.6-22.3 9.6-32.8 3.8 -1.6-0.9-4.1-2.7-5.5-4 -11.9-10.7-20.1-24.7-25.7-39.7v13.7c11.3 22.6 30.2 41.5 56.5 39.8 1.9-0.1 2.6 1 1.7 2.6 -2.5 5-4.4 11.1-8.7 14.3 -1.5 1.1-4.5 1.6-6.4 1.5 -13.3-0.8-25.6-8.3-36.1-16 -2.4-2-4.7-4.2-7-6.4v6.9c12.5 11.2 27.7 19 44.6 21.2 1.9 0.2 2.3 1.4 0.8 2.6 -12.8 10.6-29.9 14.1-45.4 19.4v4.8c12.9-3.9 25.6-8.4 38-13.6 1.7-0.7 2.5 0.1 1.7 1.8 -5.7 11.9-14.1 23.3-27.3 27 -4.1 1.3-8.2 2.5-12.4 3.7v4.5c5-1.4 10-2.8 15-4.2 1.8-0.5 2.2 0.1 0.9 1.5 -5.1 5.2-10.1 10.9-15.8 15.4v5.6c11.6-9.6 22.3-20.5 31.6-32.7 1.1-1.5 2.8-4.1 3.7-5.7 21.2-38.2 42.7-77.8 49.5-121.4 6.3-59.9-8.9-125.2-50.6-170 -1.3-1.4-0.8-2.7 1-3 5.8-0.9 12-1.8 17.7-0.4 1.8 0.4 4.5 1.9 5.9 3.2 6.3 5.9 9.6 14.5 13.7 22.1 21.8 44.4 36.3 94.1 30.9 143.9 -1.8 45.2-27.9 83.6-47.9 122.6 -0.9 1.7-2.4 4.3-3.4 5.9 -14.2 21-32 39.2-52 54.4v11.3c8.1 0.3 16.1 1.6 23.8 4.1 1.8 0.6 4.5 2 5.9 3.2 6.9 5.8 12.1 13.9 14.9 22.4 0.6 1.8-0.1 4.5-1.4 5.8 -2.9 3-6.6 5.9-9.6 4.2 -1.6-0.9-3.2-3.7-4.4-5.2 -8.4-10.7-18.4-19.8-29.2-27.9v6.1c11 7.7 19.7 18.5 27.1 29.7 1 1.6 3.4 3.1 5.3 3 7.4-0.3 15-4.3 18.4-10.8 0.9-1.7 0.7-4.6-0.2-6.2 -3.3-6.5-7.6-12.5-11.3-18.7 -1-1.6-0.4-2.2 1.3-1.4 11.8 5.8 28.3 11.2 27.4 26.7 -3 18.9-22.2 30.1-39.3 34.7 -9.5 2.4-19.1 3.5-28.6 3.7v4.9c25-0.2 51-7.1 66.8-27.3 10-10.8 7.4-30.9-5.5-37.8 -1.7-0.9-4.5-2-6.2-2.9 -16.3-7.8-33.6-12.6-51.5-14.7 -1.9-0.2-2.2-1.3-0.8-2.5 5.1-4.3 10.2-8.9 16-12.3 1.6-0.9 4.5-1.8 6.4-1.9 21.5-1.5 43 9.9 56 26.9 1.2 1.5 2.7 4.1 3.5 5.8 5.2 11.6 6.5 25 4.3 37.4 -0.3 1.9-1.2 4.8-2 6.5 -12.4 26.9-41.2 44.8-71 43.7 -5.3-0.2-10.6-0.4-16-0.6v5.1c12.9 0.7 25.8 0.3 38.5-2.3 23.7-5.5 42.8-23.9 53.4-45.4 0.8-1.7 1.8-4.6 2.2-6.4 4.3-22.7-5.2-45.5-15.3-65.4 -7.4-14.6-24-19.1-39.3-20 -1.9-0.1-2.2-1.1-0.9-2.5 0.9-0.9 1.7-1.8 2.4-2.7 7.6-2.4 22.8-8.7 28.8-6 1.7 0.8 4.3 2.5 5.9 3.4 27.3 16 38.1 49.6 35.1 80 -0.5 31.1-23.5 57.3-51 69.4 -1.7 0.8-4.6 1.7-6.4 2.2 -17.4 4.5-35.4 7-53.4 7.4v5c4.9-0.1 9.9-0.3 14.8-0.7C503 651.3 527.8 648.4 546.7 633.5zM710.6 270.2c-0.4-0.8-1.3-3-2-4.7 -16.5-41.9-47.2-77.3-84.9-101.7 -1.6-1-1.4-1.3 0.3-0.6 43.5 16.8 81.8 57.4 87 105.2C711.2 270.2 711 271.1 710.6 270.2zM479.8 248.4c0 1.9-0.3 5.2-1.8 6.3 -1.8 1.3-4.9 1.2-6.3-0.5 -6.2-7.1-5.6-17-4.8-26 0.2-1.9 1.4-2.3 2.6-0.9C474.8 233.3 480 240.5 479.8 248.4zM500 324.5c-0.6 1.8-2.5 2.6-4.2 1.7 -1.1-0.6-2.2-1.3-3.3-2 -1.6-1-2.9-3.6-2.9-5.4 0-17.7 9.8-36.7 11.8-55.4 0.2-1.9 0.7-1.9 1.1-0.1C507.4 283.4 506.4 304.9 500 324.5zM562.6 393c24.9-72.8 7.3-154.5-32.6-218.6 -1-1.6-0.3-3.1 1.6-3.1 9.7 0.1 18.3 6.3 26.9 10.5 48.9 26 95.4 62.5 119.1 113.8 0.8 1.7 1.7 4.6 1.8 6.5 0.7 12.6-6.6 24.5-14.8 33.6 -27.1 28.7-63.6 45.1-99.8 59.4C562.9 395.7 562 394.8 562.6 393zM547.3 424.2c5.1-10.3 10.1-22.1 21.9-25.8 43.3-16.9 92-38.3 112.9-82.6 0.8-1.7 1.9-1.7 2.4 0.2 5.4 21.8-11.8 40.7-27.7 53.6 -30.7 27.6-70.3 41.3-107.9 56.4C547.1 426.7 546.4 425.9 547.3 424.2zM531 454.7c4.3-10.2 10.2-20.3 20.7-24.5 1.8-0.7 4.7-1.6 6.4-2.3 45.7-17.4 92.2-37.8 123.9-76.5 1.2-1.5 2-1.1 1.6 0.7 -5.1 25.3-29.2 41.7-49.4 55.3 -30.7 22.1-65.8 36.8-101.3 49.3C531.2 457.4 530.3 456.5 531 454.7zM545.2 529.4c0.8 1.7 0.2 2-1.1 0.7 -13.1-13.3-30.9-19.4-49.1-22.1 -1.9-0.3-2-1.1-0.2-1.7C514.2 499.8 537.1 510.6 545.2 529.4z"/>
</svg>